<svg xmlns="http://www.w3.org/2000/svg" xmlns:xlink="http://www.w3.org/1999/xlink" width="500" zoomAndPan="magnify" viewBox="0 0 375 374.999991" height="500" preserveAspectRatio="xMidYMid meet" version="1.0"><defs><g/></defs><g fill="#1c98ed" fill-opacity="1"><g transform="translate(94.399309, 187.065588)"><g><path d="M 30.234375 -11.453125 C 30.460938 -11.359375 30.566406 -11.238281 30.546875 -11.09375 C 30.523438 -10.957031 30.488281 -10.8125 30.4375 -10.65625 C 29.945312 -9.425781 29.441406 -8.203125 28.921875 -6.984375 C 28.398438 -5.773438 27.738281 -4.632812 26.9375 -3.5625 C 26.789062 -3.363281 26.632812 -3.164062 26.46875 -2.96875 C 26.300781 -2.78125 26.140625 -2.597656 25.984375 -2.421875 C 25.578125 -1.898438 25.050781 -1.585938 24.40625 -1.484375 C 23.769531 -1.390625 23.144531 -1.46875 22.53125 -1.71875 C 21.914062 -1.976562 21.445312 -2.425781 21.125 -3.0625 C 20.8125 -3.625 20.550781 -4.195312 20.34375 -4.78125 C 20.144531 -5.375 19.96875 -5.976562 19.8125 -6.59375 C 19.65625 -7.28125 19.523438 -7.972656 19.421875 -8.671875 C 19.328125 -9.378906 19.242188 -10.078125 19.171875 -10.765625 C 19.085938 -11.304688 18.96875 -11.832031 18.8125 -12.34375 C 18.664062 -12.851562 18.398438 -12.929688 18.015625 -12.578125 C 17.628906 -12.191406 17.289062 -11.773438 17 -11.328125 C 16.707031 -10.878906 16.445312 -10.398438 16.21875 -9.890625 C 15.726562 -8.691406 15.296875 -7.484375 14.921875 -6.265625 C 14.554688 -5.054688 14.242188 -3.8125 13.984375 -2.53125 C 13.890625 -1.988281 13.816406 -1.613281 13.765625 -1.40625 C 13.710938 -1.207031 13.578125 -1.101562 13.359375 -1.09375 C 13.140625 -1.082031 12.722656 -1.101562 12.109375 -1.15625 C 11.648438 -1.175781 11.375 -1.226562 11.28125 -1.3125 C 11.195312 -1.40625 11.15625 -1.695312 11.15625 -2.1875 C 11.15625 -3.28125 11.15625 -4.390625 11.15625 -5.515625 C 11.15625 -6.640625 11.15625 -7.765625 11.15625 -8.890625 C 11.15625 -10.085938 11.109375 -11.289062 11.015625 -12.5 C 10.929688 -13.71875 10.75 -14.914062 10.46875 -16.09375 C 10.382812 -16.457031 10.289062 -16.8125 10.1875 -17.15625 C 10.09375 -17.5 9.957031 -17.835938 9.78125 -18.171875 C 9.445312 -18.753906 9 -18.84375 8.4375 -18.4375 C 8.28125 -18.332031 8.132812 -18.203125 8 -18.046875 C 7.875 -17.898438 7.75 -17.75 7.625 -17.59375 C 7.320312 -17.15625 7.054688 -16.695312 6.828125 -16.21875 C 6.597656 -15.75 6.390625 -15.273438 6.203125 -14.796875 C 5.566406 -12.898438 4.984375 -11 4.453125 -9.09375 C 3.929688 -7.195312 3.632812 -5.238281 3.5625 -3.21875 C 3.5625 -2.863281 3.535156 -2.503906 3.484375 -2.140625 C 3.429688 -1.785156 3.394531 -1.429688 3.375 -1.078125 C 3.34375 -0.710938 3.28125 -0.484375 3.1875 -0.390625 C 3.101562 -0.304688 2.882812 -0.265625 2.53125 -0.265625 C 2.019531 -0.242188 1.46875 -0.257812 0.875 -0.3125 C 0.5 -0.3125 0.257812 -0.351562 0.15625 -0.4375 C 0.0507812 -0.53125 -0.0351562 -0.769531 -0.109375 -1.15625 C -0.242188 -1.8125 -0.34375 -2.472656 -0.40625 -3.140625 C -0.46875 -3.804688 -0.507812 -4.472656 -0.53125 -5.140625 C -0.664062 -7.671875 -0.660156 -10.191406 -0.515625 -12.703125 C -0.378906 -15.222656 -0.117188 -17.734375 0.265625 -20.234375 C 0.296875 -20.335938 0.316406 -20.429688 0.328125 -20.515625 C 0.335938 -20.609375 0.359375 -20.695312 0.390625 -20.78125 C 0.460938 -21.332031 0.765625 -21.597656 1.296875 -21.578125 C 1.554688 -21.578125 1.804688 -21.59375 2.046875 -21.625 C 2.296875 -21.664062 2.546875 -21.6875 2.796875 -21.6875 C 3.285156 -21.71875 3.570312 -21.691406 3.65625 -21.609375 C 3.75 -21.535156 3.804688 -21.257812 3.828125 -20.78125 C 3.878906 -20.164062 3.914062 -19.550781 3.9375 -18.9375 C 3.96875 -18.320312 3.972656 -17.707031 3.953125 -17.09375 C 3.953125 -17.019531 3.953125 -16.929688 3.953125 -16.828125 C 3.953125 -16.722656 3.953125 -16.59375 3.953125 -16.4375 C 4.148438 -16.570312 4.285156 -16.710938 4.359375 -16.859375 C 4.441406 -17.015625 4.535156 -17.15625 4.640625 -17.28125 C 4.992188 -17.789062 5.378906 -18.265625 5.796875 -18.703125 C 6.222656 -19.140625 6.71875 -19.507812 7.28125 -19.8125 C 8.425781 -20.476562 9.53125 -20.625 10.59375 -20.25 C 11.65625 -19.882812 12.441406 -19.085938 12.953125 -17.859375 C 13.210938 -17.191406 13.40625 -16.523438 13.53125 -15.859375 C 13.65625 -15.203125 13.742188 -14.53125 13.796875 -13.84375 C 13.847656 -13.320312 13.890625 -12.800781 13.921875 -12.28125 C 13.960938 -11.757812 14 -11.226562 14.03125 -10.6875 C 14.226562 -10.769531 14.363281 -10.882812 14.4375 -11.03125 C 14.519531 -11.1875 14.601562 -11.328125 14.6875 -11.453125 C 14.957031 -11.890625 15.242188 -12.304688 15.546875 -12.703125 C 15.859375 -13.097656 16.195312 -13.476562 16.5625 -13.84375 C 16.707031 -13.96875 16.859375 -14.09375 17.015625 -14.21875 C 17.171875 -14.34375 17.328125 -14.472656 17.484375 -14.609375 C 18.472656 -15.242188 19.382812 -15.398438 20.21875 -15.078125 C 21.050781 -14.765625 21.617188 -14.046875 21.921875 -12.921875 C 22.097656 -12.328125 22.222656 -11.734375 22.296875 -11.140625 C 22.378906 -10.554688 22.429688 -9.972656 22.453125 -9.390625 C 22.453125 -8.566406 22.503906 -7.753906 22.609375 -6.953125 C 22.710938 -6.148438 22.828125 -5.335938 22.953125 -4.515625 C 23.003906 -4.234375 23.082031 -3.957031 23.1875 -3.6875 C 23.289062 -3.425781 23.445312 -3.191406 23.65625 -2.984375 C 23.925781 -2.648438 24.226562 -2.613281 24.5625 -2.875 C 24.769531 -3.03125 24.941406 -3.195312 25.078125 -3.375 C 25.222656 -3.550781 25.359375 -3.742188 25.484375 -3.953125 C 26.128906 -4.890625 26.707031 -5.867188 27.21875 -6.890625 C 27.726562 -7.921875 28.222656 -8.945312 28.703125 -9.96875 C 28.804688 -10.144531 28.898438 -10.332031 28.984375 -10.53125 C 29.078125 -10.738281 29.175781 -10.945312 29.28125 -11.15625 C 29.382812 -11.382812 29.519531 -11.507812 29.6875 -11.53125 C 29.851562 -11.5625 30.035156 -11.535156 30.234375 -11.453125 Z M 30.234375 -11.453125 "/></g></g></g><g fill="#1c98ed" fill-opacity="1"><g transform="translate(123.062935, 187.065588)"><g><path d="M 20.578125 -10.734375 C 20.941406 -10.578125 21.140625 -10.445312 21.171875 -10.34375 C 21.210938 -10.238281 21.15625 -10 21 -9.625 C 20.257812 -7.957031 19.5 -6.3125 18.71875 -4.6875 C 17.9375 -3.070312 17.128906 -1.457031 16.296875 0.15625 C 16.109375 0.507812 15.898438 0.863281 15.671875 1.21875 C 15.441406 1.582031 15.1875 1.914062 14.90625 2.21875 C 14.394531 2.78125 13.78125 3.117188 13.0625 3.234375 C 12.351562 3.347656 11.664062 3.257812 11 2.96875 C 10.332031 2.675781 9.820312 2.195312 9.46875 1.53125 C 9.082031 0.789062 8.789062 0.0195312 8.59375 -0.78125 C 8.40625 -1.59375 8.25 -2.40625 8.125 -3.21875 C 8 -3.988281 7.914062 -4.75 7.875 -5.5 C 7.832031 -6.25 7.789062 -7.007812 7.75 -7.78125 C 7.75 -7.851562 7.75 -7.945312 7.75 -8.0625 C 7.75 -8.175781 7.679688 -8.285156 7.546875 -8.390625 C 7.347656 -8.003906 7.140625 -7.632812 6.921875 -7.28125 C 6.703125 -6.925781 6.476562 -6.554688 6.25 -6.171875 C 6.039062 -5.816406 5.816406 -5.472656 5.578125 -5.140625 C 5.335938 -4.804688 5.078125 -4.472656 4.796875 -4.140625 C 4.234375 -3.554688 3.53125 -3.265625 2.6875 -3.265625 C 1.613281 -3.265625 0.867188 -3.75 0.453125 -4.71875 C 0.253906 -5.195312 0.101562 -5.691406 0 -6.203125 C -0.101562 -6.710938 -0.164062 -7.226562 -0.1875 -7.75 C -0.238281 -8.84375 -0.1875 -9.910156 -0.03125 -10.953125 C 0.113281 -12.003906 0.40625 -13.03125 0.84375 -14.03125 C 1.351562 -15.207031 2.035156 -16.203125 2.890625 -17.015625 C 3.742188 -17.835938 4.835938 -18.375 6.171875 -18.625 C 6.628906 -18.707031 7.066406 -18.722656 7.484375 -18.671875 C 7.910156 -18.617188 8.34375 -18.539062 8.78125 -18.4375 C 9.03125 -18.382812 9.320312 -18.410156 9.65625 -18.515625 C 10.164062 -18.710938 10.695312 -18.804688 11.25 -18.796875 C 11.800781 -18.785156 12.34375 -18.769531 12.875 -18.75 C 13 -18.75 13.085938 -18.703125 13.140625 -18.609375 C 13.191406 -18.515625 13.234375 -18.421875 13.265625 -18.328125 C 13.335938 -18.085938 13.378906 -17.847656 13.390625 -17.609375 C 13.410156 -17.367188 13.421875 -17.132812 13.421875 -16.90625 C 13.390625 -14.863281 13.320312 -12.828125 13.21875 -10.796875 C 13.113281 -8.765625 13 -6.722656 12.875 -4.671875 C 12.820312 -3.910156 12.78125 -3.148438 12.75 -2.390625 C 12.726562 -1.640625 12.734375 -0.878906 12.765625 -0.109375 C 12.765625 0.0859375 12.773438 0.300781 12.796875 0.53125 C 12.828125 0.757812 12.894531 0.988281 13 1.21875 C 13.195312 1.144531 13.351562 1.023438 13.46875 0.859375 C 13.582031 0.691406 13.691406 0.546875 13.796875 0.421875 C 14.410156 -0.472656 14.972656 -1.398438 15.484375 -2.359375 C 15.992188 -3.316406 16.492188 -4.28125 16.984375 -5.25 C 17.410156 -6.070312 17.820312 -6.894531 18.21875 -7.71875 C 18.613281 -8.550781 19.019531 -9.375 19.4375 -10.1875 C 19.632812 -10.601562 19.789062 -10.835938 19.90625 -10.890625 C 20.019531 -10.941406 20.242188 -10.890625 20.578125 -10.734375 Z M 8.78125 -15.71875 C 8.832031 -16.25 8.707031 -16.628906 8.40625 -16.859375 C 8.113281 -17.085938 7.710938 -17.140625 7.203125 -17.015625 C 7.003906 -16.941406 6.8125 -16.847656 6.625 -16.734375 C 6.445312 -16.617188 6.28125 -16.484375 6.125 -16.328125 C 5.820312 -16.046875 5.554688 -15.742188 5.328125 -15.421875 C 5.097656 -15.109375 4.878906 -14.785156 4.671875 -14.453125 C 3.910156 -13.242188 3.375 -11.984375 3.0625 -10.671875 C 2.757812 -9.359375 2.59375 -8 2.5625 -6.59375 C 2.5625 -6.488281 2.554688 -6.378906 2.546875 -6.265625 C 2.535156 -6.148438 2.539062 -6.039062 2.5625 -5.9375 C 2.59375 -5.707031 2.582031 -5.453125 2.53125 -5.171875 C 2.476562 -4.890625 2.617188 -4.710938 2.953125 -4.640625 C 3.234375 -4.554688 3.445312 -4.632812 3.59375 -4.875 C 3.75 -5.125 3.878906 -5.351562 3.984375 -5.5625 C 4.859375 -6.988281 5.65625 -8.445312 6.375 -9.9375 C 7.101562 -11.4375 7.800781 -12.941406 8.46875 -14.453125 C 8.625 -14.835938 8.726562 -15.257812 8.78125 -15.71875 Z M 8.78125 -15.71875 "/></g></g></g><g fill="#1c98ed" fill-opacity="1"><g transform="translate(142.797915, 187.065588)"><g><path d="M 3.796875 -16.75 C 3.742188 -16.820312 3.691406 -16.898438 3.640625 -16.984375 C 3.585938 -17.078125 3.507812 -17.191406 3.40625 -17.328125 C 3.226562 -16.609375 3.082031 -15.914062 2.96875 -15.25 C 2.851562 -14.59375 2.734375 -13.941406 2.609375 -13.296875 C 2.171875 -10.972656 1.609375 -8.691406 0.921875 -6.453125 C 0.234375 -4.222656 -0.554688 -2.019531 -1.453125 0.15625 C -1.628906 0.632812 -1.804688 0.921875 -1.984375 1.015625 C -2.171875 1.109375 -2.476562 1.113281 -2.90625 1.03125 C -3.34375 0.957031 -3.5 0.71875 -3.375 0.3125 C -3.25 -0.0195312 -3.132812 -0.359375 -3.03125 -0.703125 C -2.925781 -1.046875 -2.8125 -1.398438 -2.6875 -1.765625 C -1.757812 -4.441406 -0.988281 -7.160156 -0.375 -9.921875 C 0.226562 -12.679688 0.828125 -15.457031 1.421875 -18.25 C 1.523438 -18.707031 1.625 -19.164062 1.71875 -19.625 C 1.820312 -20.082031 1.925781 -20.53125 2.03125 -20.96875 C 2.363281 -22.320312 3.078125 -22.585938 4.171875 -21.765625 C 4.941406 -21.179688 5.554688 -20.519531 6.015625 -19.78125 C 6.929688 -18.289062 7.789062 -16.765625 8.59375 -15.203125 C 9.40625 -13.648438 10.078125 -12.03125 10.609375 -10.34375 C 10.765625 -9.914062 10.894531 -9.675781 11 -9.625 C 11.101562 -9.570312 11.382812 -9.632812 11.84375 -9.8125 C 12.425781 -10.0625 13 -10.328125 13.5625 -10.609375 C 14.125 -10.890625 14.660156 -11.210938 15.171875 -11.578125 C 15.304688 -11.679688 15.441406 -11.773438 15.578125 -11.859375 C 15.722656 -11.953125 15.867188 -12.023438 16.015625 -12.078125 C 16.484375 -12.179688 16.789062 -12.050781 16.9375 -11.6875 C 17.019531 -11.53125 17.015625 -11.394531 16.921875 -11.28125 C 16.828125 -11.164062 16.734375 -11.0625 16.640625 -10.96875 C 16.203125 -10.65625 15.753906 -10.34375 15.296875 -10.03125 C 14.835938 -9.726562 14.363281 -9.460938 13.875 -9.234375 C 13.613281 -9.109375 13.347656 -8.988281 13.078125 -8.875 C 12.816406 -8.757812 12.554688 -8.648438 12.296875 -8.546875 C 11.785156 -8.367188 11.5 -8.222656 11.4375 -8.109375 C 11.375 -7.992188 11.394531 -7.691406 11.5 -7.203125 C 11.570312 -6.921875 11.628906 -6.632812 11.671875 -6.34375 C 11.710938 -6.050781 11.757812 -5.765625 11.8125 -5.484375 C 11.90625 -4.921875 11.925781 -4.363281 11.875 -3.8125 C 11.832031 -3.257812 11.742188 -2.703125 11.609375 -2.140625 C 11.304688 -0.992188 10.644531 -0.0859375 9.625 0.578125 C 8.726562 1.191406 7.785156 1.546875 6.796875 1.640625 C 5.816406 1.742188 4.828125 1.617188 3.828125 1.265625 C 2.929688 0.960938 2.25 0.476562 1.78125 -0.1875 C 1.3125 -0.851562 1.078125 -1.59375 1.078125 -2.40625 C 1.078125 -3.226562 1.34375 -4.023438 1.875 -4.796875 C 2.363281 -5.484375 2.929688 -6.039062 3.578125 -6.46875 C 4.234375 -6.90625 4.929688 -7.289062 5.671875 -7.625 C 6.109375 -7.832031 6.410156 -8 6.578125 -8.125 C 6.742188 -8.25 6.8125 -8.414062 6.78125 -8.625 C 6.757812 -8.832031 6.679688 -9.148438 6.546875 -9.578125 C 6.171875 -10.804688 5.738281 -12.015625 5.25 -13.203125 C 4.757812 -14.390625 4.273438 -15.570312 3.796875 -16.75 Z M 7.59375 -1.03125 C 7.71875 -1.394531 7.804688 -1.757812 7.859375 -2.125 C 7.910156 -2.5 7.9375 -2.835938 7.9375 -3.140625 C 7.9375 -3.734375 7.890625 -4.273438 7.796875 -4.765625 C 7.710938 -5.265625 7.601562 -5.757812 7.46875 -6.25 C 7.394531 -6.65625 7.191406 -6.769531 6.859375 -6.59375 C 6.191406 -6.257812 5.585938 -5.863281 5.046875 -5.40625 C 4.515625 -4.945312 4.109375 -4.359375 3.828125 -3.640625 C 3.597656 -2.972656 3.566406 -2.335938 3.734375 -1.734375 C 3.898438 -1.140625 4.253906 -0.640625 4.796875 -0.234375 C 5.359375 0.179688 5.898438 0.3125 6.421875 0.15625 C 6.941406 0 7.332031 -0.394531 7.59375 -1.03125 Z M 7.59375 -1.03125 "/></g></g></g><g fill="#1c98ed" fill-opacity="1"><g transform="translate(157.896139, 187.065588)"><g><path d="M 20.578125 -10.734375 C 20.941406 -10.578125 21.140625 -10.445312 21.171875 -10.34375 C 21.210938 -10.238281 21.15625 -10 21 -9.625 C 20.257812 -7.957031 19.5 -6.3125 18.71875 -4.6875 C 17.9375 -3.070312 17.128906 -1.457031 16.296875 0.15625 C 16.109375 0.507812 15.898438 0.863281 15.671875 1.21875 C 15.441406 1.582031 15.1875 1.914062 14.90625 2.21875 C 14.394531 2.78125 13.78125 3.117188 13.0625 3.234375 C 12.351562 3.347656 11.664062 3.257812 11 2.96875 C 10.332031 2.675781 9.820312 2.195312 9.46875 1.53125 C 9.082031 0.789062 8.789062 0.0195312 8.59375 -0.78125 C 8.40625 -1.59375 8.25 -2.40625 8.125 -3.21875 C 8 -3.988281 7.914062 -4.75 7.875 -5.5 C 7.832031 -6.25 7.789062 -7.007812 7.75 -7.78125 C 7.75 -7.851562 7.75 -7.945312 7.75 -8.0625 C 7.75 -8.175781 7.679688 -8.285156 7.546875 -8.390625 C 7.347656 -8.003906 7.140625 -7.632812 6.921875 -7.28125 C 6.703125 -6.925781 6.476562 -6.554688 6.25 -6.171875 C 6.039062 -5.816406 5.816406 -5.472656 5.578125 -5.140625 C 5.335938 -4.804688 5.078125 -4.472656 4.796875 -4.140625 C 4.234375 -3.554688 3.53125 -3.265625 2.6875 -3.265625 C 1.613281 -3.265625 0.867188 -3.75 0.453125 -4.71875 C 0.253906 -5.195312 0.101562 -5.691406 0 -6.203125 C -0.101562 -6.710938 -0.164062 -7.226562 -0.1875 -7.75 C -0.238281 -8.84375 -0.1875 -9.910156 -0.03125 -10.953125 C 0.113281 -12.003906 0.40625 -13.03125 0.84375 -14.03125 C 1.351562 -15.207031 2.035156 -16.203125 2.890625 -17.015625 C 3.742188 -17.835938 4.835938 -18.375 6.171875 -18.625 C 6.628906 -18.707031 7.066406 -18.722656 7.484375 -18.671875 C 7.910156 -18.617188 8.34375 -18.539062 8.78125 -18.4375 C 9.03125 -18.382812 9.320312 -18.410156 9.65625 -18.515625 C 10.164062 -18.710938 10.695312 -18.804688 11.25 -18.796875 C 11.800781 -18.785156 12.34375 -18.769531 12.875 -18.75 C 13 -18.75 13.085938 -18.703125 13.140625 -18.609375 C 13.191406 -18.515625 13.234375 -18.421875 13.265625 -18.328125 C 13.335938 -18.085938 13.378906 -17.847656 13.390625 -17.609375 C 13.410156 -17.367188 13.421875 -17.132812 13.421875 -16.90625 C 13.390625 -14.863281 13.320312 -12.828125 13.21875 -10.796875 C 13.113281 -8.765625 13 -6.722656 12.875 -4.671875 C 12.820312 -3.910156 12.78125 -3.148438 12.75 -2.390625 C 12.726562 -1.640625 12.734375 -0.878906 12.765625 -0.109375 C 12.765625 0.0859375 12.773438 0.300781 12.796875 0.53125 C 12.828125 0.757812 12.894531 0.988281 13 1.21875 C 13.195312 1.144531 13.351562 1.023438 13.46875 0.859375 C 13.582031 0.691406 13.691406 0.546875 13.796875 0.421875 C 14.410156 -0.472656 14.972656 -1.398438 15.484375 -2.359375 C 15.992188 -3.316406 16.492188 -4.28125 16.984375 -5.25 C 17.410156 -6.070312 17.820312 -6.894531 18.21875 -7.71875 C 18.613281 -8.550781 19.019531 -9.375 19.4375 -10.1875 C 19.632812 -10.601562 19.789062 -10.835938 19.90625 -10.890625 C 20.019531 -10.941406 20.242188 -10.890625 20.578125 -10.734375 Z M 8.78125 -15.71875 C 8.832031 -16.25 8.707031 -16.628906 8.40625 -16.859375 C 8.113281 -17.085938 7.710938 -17.140625 7.203125 -17.015625 C 7.003906 -16.941406 6.8125 -16.847656 6.625 -16.734375 C 6.445312 -16.617188 6.28125 -16.484375 6.125 -16.328125 C 5.820312 -16.046875 5.554688 -15.742188 5.328125 -15.421875 C 5.097656 -15.109375 4.878906 -14.785156 4.671875 -14.453125 C 3.910156 -13.242188 3.375 -11.984375 3.0625 -10.671875 C 2.757812 -9.359375 2.59375 -8 2.5625 -6.59375 C 2.5625 -6.488281 2.554688 -6.378906 2.546875 -6.265625 C 2.535156 -6.148438 2.539062 -6.039062 2.5625 -5.9375 C 2.59375 -5.707031 2.582031 -5.453125 2.53125 -5.171875 C 2.476562 -4.890625 2.617188 -4.710938 2.953125 -4.640625 C 3.234375 -4.554688 3.445312 -4.632812 3.59375 -4.875 C 3.75 -5.125 3.878906 -5.351562 3.984375 -5.5625 C 4.859375 -6.988281 5.65625 -8.445312 6.375 -9.9375 C 7.101562 -11.4375 7.800781 -12.941406 8.46875 -14.453125 C 8.625 -14.835938 8.726562 -15.257812 8.78125 -15.71875 Z M 8.78125 -15.71875 "/></g></g></g><g fill="#1c98ed" fill-opacity="1"><g transform="translate(177.631119, 187.065588)"><g><path d="M -1.34375 -12.765625 C -1.363281 -13.273438 -1.382812 -13.78125 -1.40625 -14.28125 C -1.4375 -14.78125 -1.46875 -15.207031 -1.5 -15.5625 C -1.445312 -17.550781 -1.296875 -19.445312 -1.046875 -21.25 C -0.804688 -23.050781 -0.394531 -24.820312 0.1875 -26.5625 C 0.46875 -27.40625 0.804688 -28.222656 1.203125 -29.015625 C 1.597656 -29.804688 2.078125 -30.546875 2.640625 -31.234375 C 3.097656 -31.847656 3.617188 -32.363281 4.203125 -32.78125 C 4.796875 -33.207031 5.488281 -33.5 6.28125 -33.65625 C 7.226562 -33.832031 8.097656 -33.707031 8.890625 -33.28125 C 9.679688 -32.863281 10.269531 -32.207031 10.65625 -31.3125 C 10.9375 -30.644531 11.113281 -29.972656 11.1875 -29.296875 C 11.269531 -28.617188 11.285156 -27.9375 11.234375 -27.25 C 11.078125 -25.3125 10.640625 -23.421875 9.921875 -21.578125 C 9.109375 -19.535156 8.222656 -17.535156 7.265625 -15.578125 C 6.304688 -13.617188 5.160156 -11.757812 3.828125 -10 C 3.578125 -9.644531 3.460938 -9.273438 3.484375 -8.890625 C 3.566406 -7.640625 3.734375 -6.40625 3.984375 -5.1875 C 4.242188 -3.976562 4.601562 -2.785156 5.0625 -1.609375 C 5.0625 -1.554688 5.070312 -1.503906 5.09375 -1.453125 C 5.125 -1.398438 5.148438 -1.347656 5.171875 -1.296875 C 5.859375 0.0234375 6.765625 0.175781 7.890625 -0.84375 C 8.171875 -1.125 8.425781 -1.429688 8.65625 -1.765625 C 8.882812 -2.097656 9.101562 -2.429688 9.3125 -2.765625 C 9.945312 -3.890625 10.507812 -5.046875 11 -6.234375 C 11.488281 -7.421875 12 -8.585938 12.53125 -9.734375 C 12.582031 -9.835938 12.625 -9.9375 12.65625 -10.03125 C 12.695312 -10.132812 12.742188 -10.238281 12.796875 -10.34375 C 12.953125 -10.675781 13.175781 -10.878906 13.46875 -10.953125 C 13.757812 -11.035156 14.0625 -10.972656 14.375 -10.765625 C 14.5 -10.691406 14.5625 -10.578125 14.5625 -10.421875 C 14.539062 -10.296875 14.515625 -10.195312 14.484375 -10.125 C 13.953125 -8.71875 13.421875 -7.3125 12.890625 -5.90625 C 12.367188 -4.5 11.710938 -3.15625 10.921875 -1.875 C 10.765625 -1.644531 10.601562 -1.421875 10.4375 -1.203125 C 10.269531 -0.984375 10.113281 -0.773438 9.96875 -0.578125 C 9.375 0.160156 8.703125 0.671875 7.953125 0.953125 C 7.203125 1.234375 6.363281 1.320312 5.4375 1.21875 C 4.257812 1.125 3.300781 0.613281 2.5625 -0.3125 C 2.082031 -0.914062 1.660156 -1.5625 1.296875 -2.25 C 0.941406 -2.945312 0.640625 -3.664062 0.390625 -4.40625 C -0.0976562 -5.757812 -0.476562 -7.128906 -0.75 -8.515625 C -1.019531 -9.910156 -1.21875 -11.328125 -1.34375 -12.765625 Z M 3.109375 -13 C 3.109375 -12.914062 3.117188 -12.820312 3.140625 -12.71875 C 3.171875 -12.625 3.257812 -12.523438 3.40625 -12.421875 C 3.539062 -12.617188 3.65625 -12.8125 3.75 -13 C 3.851562 -13.195312 3.957031 -13.382812 4.0625 -13.5625 C 4.570312 -14.488281 5.039062 -15.421875 5.46875 -16.359375 C 5.90625 -17.304688 6.332031 -18.265625 6.75 -19.234375 C 7.257812 -20.515625 7.671875 -21.816406 7.984375 -23.140625 C 8.304688 -24.472656 8.503906 -25.832031 8.578125 -27.21875 C 8.609375 -27.875 8.570312 -28.515625 8.46875 -29.140625 C 8.363281 -29.773438 8.160156 -30.394531 7.859375 -31 C 7.367188 -31.976562 6.816406 -32.019531 6.203125 -31.125 C 6.003906 -30.8125 5.828125 -30.492188 5.671875 -30.171875 C 5.515625 -29.859375 5.375 -29.535156 5.25 -29.203125 C 4.28125 -26.578125 3.640625 -23.914062 3.328125 -21.21875 C 3.023438 -18.519531 2.953125 -15.78125 3.109375 -13 Z M 3.109375 -13 "/></g></g></g><g fill="#1c98ed" fill-opacity="1"><g transform="translate(190.27684, 187.065588)"><g><path d="M 20.578125 -10.734375 C 20.941406 -10.578125 21.140625 -10.445312 21.171875 -10.34375 C 21.210938 -10.238281 21.15625 -10 21 -9.625 C 20.257812 -7.957031 19.5 -6.3125 18.71875 -4.6875 C 17.9375 -3.070312 17.128906 -1.457031 16.296875 0.15625 C 16.109375 0.507812 15.898438 0.863281 15.671875 1.21875 C 15.441406 1.582031 15.1875 1.914062 14.90625 2.21875 C 14.394531 2.78125 13.78125 3.117188 13.0625 3.234375 C 12.351562 3.347656 11.664062 3.257812 11 2.96875 C 10.332031 2.675781 9.820312 2.195312 9.46875 1.53125 C 9.082031 0.789062 8.789062 0.0195312 8.59375 -0.78125 C 8.40625 -1.59375 8.25 -2.40625 8.125 -3.21875 C 8 -3.988281 7.914062 -4.75 7.875 -5.5 C 7.832031 -6.25 7.789062 -7.007812 7.75 -7.78125 C 7.75 -7.851562 7.75 -7.945312 7.75 -8.0625 C 7.75 -8.175781 7.679688 -8.285156 7.546875 -8.390625 C 7.347656 -8.003906 7.140625 -7.632812 6.921875 -7.28125 C 6.703125 -6.925781 6.476562 -6.554688 6.25 -6.171875 C 6.039062 -5.816406 5.816406 -5.472656 5.578125 -5.140625 C 5.335938 -4.804688 5.078125 -4.472656 4.796875 -4.140625 C 4.234375 -3.554688 3.53125 -3.265625 2.6875 -3.265625 C 1.613281 -3.265625 0.867188 -3.75 0.453125 -4.71875 C 0.253906 -5.195312 0.101562 -5.691406 0 -6.203125 C -0.101562 -6.710938 -0.164062 -7.226562 -0.1875 -7.75 C -0.238281 -8.84375 -0.1875 -9.910156 -0.03125 -10.953125 C 0.113281 -12.003906 0.40625 -13.03125 0.84375 -14.03125 C 1.351562 -15.207031 2.035156 -16.203125 2.890625 -17.015625 C 3.742188 -17.835938 4.835938 -18.375 6.171875 -18.625 C 6.628906 -18.707031 7.066406 -18.722656 7.484375 -18.671875 C 7.910156 -18.617188 8.34375 -18.539062 8.78125 -18.4375 C 9.03125 -18.382812 9.320312 -18.410156 9.65625 -18.515625 C 10.164062 -18.710938 10.695312 -18.804688 11.25 -18.796875 C 11.800781 -18.785156 12.34375 -18.769531 12.875 -18.75 C 13 -18.75 13.085938 -18.703125 13.140625 -18.609375 C 13.191406 -18.515625 13.234375 -18.421875 13.265625 -18.328125 C 13.335938 -18.085938 13.378906 -17.847656 13.390625 -17.609375 C 13.410156 -17.367188 13.421875 -17.132812 13.421875 -16.90625 C 13.390625 -14.863281 13.320312 -12.828125 13.21875 -10.796875 C 13.113281 -8.765625 13 -6.722656 12.875 -4.671875 C 12.820312 -3.910156 12.78125 -3.148438 12.75 -2.390625 C 12.726562 -1.640625 12.734375 -0.878906 12.765625 -0.109375 C 12.765625 0.0859375 12.773438 0.300781 12.796875 0.53125 C 12.828125 0.757812 12.894531 0.988281 13 1.21875 C 13.195312 1.144531 13.351562 1.023438 13.46875 0.859375 C 13.582031 0.691406 13.691406 0.546875 13.796875 0.421875 C 14.410156 -0.472656 14.972656 -1.398438 15.484375 -2.359375 C 15.992188 -3.316406 16.492188 -4.28125 16.984375 -5.25 C 17.410156 -6.070312 17.820312 -6.894531 18.21875 -7.71875 C 18.613281 -8.550781 19.019531 -9.375 19.4375 -10.1875 C 19.632812 -10.601562 19.789062 -10.835938 19.90625 -10.890625 C 20.019531 -10.941406 20.242188 -10.890625 20.578125 -10.734375 Z M 8.78125 -15.71875 C 8.832031 -16.25 8.707031 -16.628906 8.40625 -16.859375 C 8.113281 -17.085938 7.710938 -17.140625 7.203125 -17.015625 C 7.003906 -16.941406 6.8125 -16.847656 6.625 -16.734375 C 6.445312 -16.617188 6.28125 -16.484375 6.125 -16.328125 C 5.820312 -16.046875 5.554688 -15.742188 5.328125 -15.421875 C 5.097656 -15.109375 4.878906 -14.785156 4.671875 -14.453125 C 3.910156 -13.242188 3.375 -11.984375 3.0625 -10.671875 C 2.757812 -9.359375 2.59375 -8 2.5625 -6.59375 C 2.5625 -6.488281 2.554688 -6.378906 2.546875 -6.265625 C 2.535156 -6.148438 2.539062 -6.039062 2.5625 -5.9375 C 2.59375 -5.707031 2.582031 -5.453125 2.53125 -5.171875 C 2.476562 -4.890625 2.617188 -4.710938 2.953125 -4.640625 C 3.234375 -4.554688 3.445312 -4.632812 3.59375 -4.875 C 3.75 -5.125 3.878906 -5.351562 3.984375 -5.5625 C 4.859375 -6.988281 5.65625 -8.445312 6.375 -9.9375 C 7.101562 -11.4375 7.800781 -12.941406 8.46875 -14.453125 C 8.625 -14.835938 8.726562 -15.257812 8.78125 -15.71875 Z M 8.78125 -15.71875 "/></g></g></g><g fill="#1c98ed" fill-opacity="1"><g transform="translate(210.01182, 187.065588)"><g><path d="M 4.453125 -2.6875 C 4.367188 -3.625 4.300781 -4.566406 4.25 -5.515625 C 4.195312 -6.460938 4.1875 -7.394531 4.21875 -8.3125 C 4.21875 -9.289062 4.21875 -10.253906 4.21875 -11.203125 C 4.21875 -12.160156 4.21875 -13.101562 4.21875 -14.03125 C 4.21875 -14.5625 4.160156 -14.863281 4.046875 -14.9375 C 3.929688 -15.019531 3.617188 -14.972656 3.109375 -14.796875 C 2.742188 -14.640625 2.382812 -14.515625 2.03125 -14.421875 C 1.675781 -14.335938 1.304688 -14.320312 0.921875 -14.375 C 0.796875 -14.375 0.664062 -14.382812 0.53125 -14.40625 C 0.40625 -14.4375 0.316406 -14.53125 0.265625 -14.6875 C 0.242188 -14.832031 0.273438 -14.945312 0.359375 -15.03125 C 0.453125 -15.125 0.550781 -15.210938 0.65625 -15.296875 C 1.03125 -15.597656 1.441406 -15.835938 1.890625 -16.015625 C 2.335938 -16.203125 2.804688 -16.34375 3.296875 -16.4375 C 3.804688 -16.539062 4.101562 -16.644531 4.1875 -16.75 C 4.28125 -16.851562 4.34375 -17.160156 4.375 -17.671875 C 4.445312 -18.847656 4.539062 -20.003906 4.65625 -21.140625 C 4.769531 -22.273438 4.96875 -23.414062 5.25 -24.5625 C 5.601562 -26 6.207031 -27.082031 7.0625 -27.8125 C 7.925781 -28.539062 9.097656 -28.941406 10.578125 -29.015625 C 11.910156 -29.117188 13.207031 -29.039062 14.46875 -28.78125 C 15.726562 -28.53125 16.988281 -28.238281 18.25 -27.90625 C 18.625 -27.800781 18.800781 -27.519531 18.78125 -27.0625 C 18.757812 -26.832031 18.675781 -26.679688 18.53125 -26.609375 C 18.394531 -26.546875 18.222656 -26.503906 18.015625 -26.484375 C 17.328125 -26.460938 16.644531 -26.492188 15.96875 -26.578125 C 15.289062 -26.671875 14.601562 -26.769531 13.90625 -26.875 C 13.5 -26.914062 13.09375 -26.960938 12.6875 -27.015625 C 12.28125 -27.066406 11.867188 -27.117188 11.453125 -27.171875 C 11.097656 -27.222656 10.796875 -27.171875 10.546875 -27.015625 C 10.304688 -26.867188 10.113281 -26.640625 9.96875 -26.328125 C 9.789062 -25.972656 9.65625 -25.613281 9.5625 -25.25 C 9.46875 -24.894531 9.398438 -24.523438 9.359375 -24.140625 C 9.171875 -22.972656 9.039062 -21.789062 8.96875 -20.59375 C 8.894531 -19.40625 8.84375 -18.210938 8.8125 -17.015625 C 8.8125 -16.628906 8.847656 -16.398438 8.921875 -16.328125 C 9.003906 -16.253906 9.222656 -16.21875 9.578125 -16.21875 C 10.523438 -16.1875 11.453125 -16.207031 12.359375 -16.28125 C 13.265625 -16.363281 14.164062 -16.554688 15.0625 -16.859375 C 15.238281 -16.910156 15.410156 -16.957031 15.578125 -17 C 15.742188 -17.039062 15.914062 -17.046875 16.09375 -17.015625 C 16.425781 -16.941406 16.609375 -16.773438 16.640625 -16.515625 C 16.660156 -16.316406 16.554688 -16.140625 16.328125 -15.984375 C 16.117188 -15.859375 15.90625 -15.753906 15.6875 -15.671875 C 15.476562 -15.597656 15.257812 -15.535156 15.03125 -15.484375 C 14.15625 -15.253906 13.273438 -15.09375 12.390625 -15 C 11.515625 -14.914062 10.644531 -14.859375 9.78125 -14.828125 C 9.289062 -14.804688 9.003906 -14.753906 8.921875 -14.671875 C 8.847656 -14.597656 8.8125 -14.320312 8.8125 -13.84375 C 8.789062 -11.6875 8.828125 -9.535156 8.921875 -7.390625 C 9.023438 -5.242188 9.144531 -3.097656 9.28125 -0.953125 C 9.300781 -0.722656 9.3125 -0.488281 9.3125 -0.25 C 9.3125 -0.0078125 9.3125 0.222656 9.3125 0.453125 C 9.289062 0.785156 9.207031 1.019531 9.0625 1.15625 C 8.925781 1.300781 8.691406 1.390625 8.359375 1.421875 C 7.972656 1.441406 7.582031 1.457031 7.1875 1.46875 C 6.789062 1.488281 6.390625 1.5 5.984375 1.5 C 5.566406 1.5 5.273438 1.429688 5.109375 1.296875 C 4.953125 1.171875 4.832031 0.890625 4.75 0.453125 C 4.675781 -0.0546875 4.613281 -0.570312 4.5625 -1.09375 C 4.507812 -1.613281 4.472656 -2.144531 4.453125 -2.6875 Z M 4.453125 -2.6875 "/></g></g></g><g fill="#1c98ed" fill-opacity="1"><g transform="translate(227.984067, 187.065588)"><g><path d="M -1.34375 -12.765625 C -1.363281 -13.273438 -1.382812 -13.78125 -1.40625 -14.28125 C -1.4375 -14.78125 -1.46875 -15.207031 -1.5 -15.5625 C -1.445312 -17.550781 -1.296875 -19.445312 -1.046875 -21.25 C -0.804688 -23.050781 -0.394531 -24.820312 0.1875 -26.5625 C 0.46875 -27.40625 0.804688 -28.222656 1.203125 -29.015625 C 1.597656 -29.804688 2.078125 -30.546875 2.640625 -31.234375 C 3.097656 -31.847656 3.617188 -32.363281 4.203125 -32.78125 C 4.796875 -33.207031 5.488281 -33.5 6.28125 -33.65625 C 7.226562 -33.832031 8.097656 -33.707031 8.890625 -33.28125 C 9.679688 -32.863281 10.269531 -32.207031 10.65625 -31.3125 C 10.9375 -30.644531 11.113281 -29.972656 11.1875 -29.296875 C 11.269531 -28.617188 11.285156 -27.9375 11.234375 -27.25 C 11.078125 -25.3125 10.640625 -23.421875 9.921875 -21.578125 C 9.109375 -19.535156 8.222656 -17.535156 7.265625 -15.578125 C 6.304688 -13.617188 5.160156 -11.757812 3.828125 -10 C 3.578125 -9.644531 3.460938 -9.273438 3.484375 -8.890625 C 3.566406 -7.640625 3.734375 -6.40625 3.984375 -5.1875 C 4.242188 -3.976562 4.601562 -2.785156 5.0625 -1.609375 C 5.0625 -1.554688 5.070312 -1.503906 5.09375 -1.453125 C 5.125 -1.398438 5.148438 -1.347656 5.171875 -1.296875 C 5.859375 0.0234375 6.765625 0.175781 7.890625 -0.84375 C 8.171875 -1.125 8.425781 -1.429688 8.65625 -1.765625 C 8.882812 -2.097656 9.101562 -2.429688 9.3125 -2.765625 C 9.945312 -3.890625 10.507812 -5.046875 11 -6.234375 C 11.488281 -7.421875 12 -8.585938 12.53125 -9.734375 C 12.582031 -9.835938 12.625 -9.9375 12.65625 -10.03125 C 12.695312 -10.132812 12.742188 -10.238281 12.796875 -10.34375 C 12.953125 -10.675781 13.175781 -10.878906 13.46875 -10.953125 C 13.757812 -11.035156 14.0625 -10.972656 14.375 -10.765625 C 14.5 -10.691406 14.5625 -10.578125 14.5625 -10.421875 C 14.539062 -10.296875 14.515625 -10.195312 14.484375 -10.125 C 13.953125 -8.71875 13.421875 -7.3125 12.890625 -5.90625 C 12.367188 -4.5 11.710938 -3.15625 10.921875 -1.875 C 10.765625 -1.644531 10.601562 -1.421875 10.4375 -1.203125 C 10.269531 -0.984375 10.113281 -0.773438 9.96875 -0.578125 C 9.375 0.160156 8.703125 0.671875 7.953125 0.953125 C 7.203125 1.234375 6.363281 1.320312 5.4375 1.21875 C 4.257812 1.125 3.300781 0.613281 2.5625 -0.3125 C 2.082031 -0.914062 1.660156 -1.5625 1.296875 -2.25 C 0.941406 -2.945312 0.640625 -3.664062 0.390625 -4.40625 C -0.0976562 -5.757812 -0.476562 -7.128906 -0.75 -8.515625 C -1.019531 -9.910156 -1.21875 -11.328125 -1.34375 -12.765625 Z M 3.109375 -13 C 3.109375 -12.914062 3.117188 -12.820312 3.140625 -12.71875 C 3.171875 -12.625 3.257812 -12.523438 3.40625 -12.421875 C 3.539062 -12.617188 3.65625 -12.8125 3.75 -13 C 3.851562 -13.195312 3.957031 -13.382812 4.0625 -13.5625 C 4.570312 -14.488281 5.039062 -15.421875 5.46875 -16.359375 C 5.90625 -17.304688 6.332031 -18.265625 6.75 -19.234375 C 7.257812 -20.515625 7.671875 -21.816406 7.984375 -23.140625 C 8.304688 -24.472656 8.503906 -25.832031 8.578125 -27.21875 C 8.609375 -27.875 8.570312 -28.515625 8.46875 -29.140625 C 8.363281 -29.773438 8.160156 -30.394531 7.859375 -31 C 7.367188 -31.976562 6.816406 -32.019531 6.203125 -31.125 C 6.003906 -30.8125 5.828125 -30.492188 5.671875 -30.171875 C 5.515625 -29.859375 5.375 -29.535156 5.25 -29.203125 C 4.28125 -26.578125 3.640625 -23.914062 3.328125 -21.21875 C 3.023438 -18.519531 2.953125 -15.78125 3.109375 -13 Z M 3.109375 -13 "/></g></g></g><g fill="#1c98ed" fill-opacity="1"><g transform="translate(240.629788, 187.065588)"><g><path d="M 11.265625 -11.234375 C 11.578125 -11.097656 11.722656 -10.9375 11.703125 -10.75 C 11.691406 -10.5625 11.632812 -10.363281 11.53125 -10.15625 C 11.070312 -9.082031 10.601562 -7.992188 10.125 -6.890625 C 9.65625 -5.796875 9.179688 -4.703125 8.703125 -3.609375 C 8.546875 -3.273438 8.390625 -2.945312 8.234375 -2.625 C 8.085938 -2.300781 7.925781 -1.972656 7.75 -1.640625 C 7.3125 -0.898438 6.703125 -0.390625 5.921875 -0.109375 C 5.140625 0.171875 4.335938 0.21875 3.515625 0.03125 C 2.703125 -0.144531 2.039062 -0.578125 1.53125 -1.265625 C 1.195312 -1.703125 0.929688 -2.160156 0.734375 -2.640625 C 0.546875 -3.128906 0.390625 -3.628906 0.265625 -4.140625 C 0.0664062 -4.929688 -0.0625 -5.734375 -0.125 -6.546875 C -0.195312 -7.367188 -0.21875 -8.140625 -0.1875 -8.859375 C -0.21875 -10.441406 -0.125 -11.957031 0.09375 -13.40625 C 0.3125 -14.863281 0.613281 -16.3125 1 -17.75 C 1.019531 -17.894531 1.0625 -18.046875 1.125 -18.203125 C 1.1875 -18.359375 1.242188 -18.515625 1.296875 -18.671875 C 1.429688 -19.023438 1.675781 -19.191406 2.03125 -19.171875 C 2.101562 -19.171875 2.164062 -19.171875 2.21875 -19.171875 C 2.269531 -19.171875 2.320312 -19.171875 2.375 -19.171875 C 3.144531 -19.140625 3.597656 -19.050781 3.734375 -18.90625 C 3.878906 -18.769531 3.910156 -18.332031 3.828125 -17.59375 C 3.722656 -16.0625 3.617188 -14.539062 3.515625 -13.03125 C 3.421875 -11.519531 3.398438 -10.015625 3.453125 -8.515625 C 3.472656 -7.671875 3.492188 -6.832031 3.515625 -6 C 3.546875 -5.164062 3.640625 -4.34375 3.796875 -3.53125 C 3.847656 -3.195312 3.921875 -2.875 4.015625 -2.5625 C 4.117188 -2.257812 4.25 -1.96875 4.40625 -1.6875 C 4.738281 -1.101562 5.082031 -1.078125 5.4375 -1.609375 C 5.59375 -1.816406 5.726562 -2.035156 5.84375 -2.265625 C 5.957031 -2.492188 6.078125 -2.722656 6.203125 -2.953125 C 6.847656 -4.179688 7.484375 -5.414062 8.109375 -6.65625 C 8.734375 -7.894531 9.363281 -9.125 10 -10.34375 C 10.03125 -10.425781 10.0625 -10.5 10.09375 -10.5625 C 10.132812 -10.625 10.164062 -10.691406 10.1875 -10.765625 C 10.375 -11.097656 10.523438 -11.285156 10.640625 -11.328125 C 10.753906 -11.367188 10.960938 -11.335938 11.265625 -11.234375 Z M 3.21875 -21.203125 C 2.144531 -21.171875 1.597656 -21.585938 1.578125 -22.453125 C 1.546875 -22.941406 1.679688 -23.359375 1.984375 -23.703125 C 2.296875 -24.046875 2.671875 -24.21875 3.109375 -24.21875 C 3.640625 -24.21875 4.066406 -24.085938 4.390625 -23.828125 C 4.710938 -23.578125 4.875 -23.222656 4.875 -22.765625 C 4.875 -21.742188 4.320312 -21.222656 3.21875 -21.203125 Z M 3.21875 -21.203125 "/></g></g></g><g fill="#1c98ed" fill-opacity="1"><g transform="translate(250.86132, 187.065588)"><g><path d="M 8.65625 -22.53125 C 8.96875 -22.507812 9.289062 -22.503906 9.625 -22.515625 C 9.957031 -22.523438 10.300781 -22.492188 10.65625 -22.421875 C 10.65625 -22.160156 10.597656 -21.941406 10.484375 -21.765625 C 10.367188 -21.585938 10.257812 -21.421875 10.15625 -21.265625 C 9.238281 -19.660156 8.359375 -18.039062 7.515625 -16.40625 C 6.671875 -14.769531 5.835938 -13.117188 5.015625 -11.453125 C 4.890625 -11.203125 4.820312 -10.953125 4.8125 -10.703125 C 4.800781 -10.460938 4.84375 -10.203125 4.9375 -9.921875 C 5.5 -8.671875 6.046875 -7.410156 6.578125 -6.140625 C 7.117188 -4.878906 7.660156 -3.625 8.203125 -2.375 C 8.378906 -1.914062 8.59375 -1.472656 8.84375 -1.046875 C 9.101562 -0.628906 9.398438 -0.242188 9.734375 0.109375 C 10.140625 0.523438 10.488281 0.738281 10.78125 0.75 C 11.082031 0.757812 11.4375 0.546875 11.84375 0.109375 C 12.457031 -0.503906 13.003906 -1.160156 13.484375 -1.859375 C 13.972656 -2.554688 14.382812 -3.316406 14.71875 -4.140625 C 14.925781 -4.648438 15.125 -5.15625 15.3125 -5.65625 C 15.5 -6.15625 15.695312 -6.660156 15.90625 -7.171875 C 15.957031 -7.296875 16.007812 -7.414062 16.0625 -7.53125 C 16.113281 -7.644531 16.164062 -7.753906 16.21875 -7.859375 C 16.289062 -8.015625 16.390625 -8.09375 16.515625 -8.09375 C 16.648438 -8.09375 16.78125 -8.078125 16.90625 -8.046875 C 17.132812 -7.972656 17.222656 -7.804688 17.171875 -7.546875 C 17.117188 -7.316406 17.066406 -7.085938 17.015625 -6.859375 C 16.960938 -6.628906 16.898438 -6.398438 16.828125 -6.171875 C 16.441406 -4.921875 15.96875 -3.710938 15.40625 -2.546875 C 14.84375 -1.390625 14.140625 -0.296875 13.296875 0.734375 C 12.679688 1.492188 12.113281 1.953125 11.59375 2.109375 C 11.070312 2.265625 10.335938 2.203125 9.390625 1.921875 C 8.546875 1.660156 7.789062 1.273438 7.125 0.765625 C 6.457031 0.253906 5.859375 -0.332031 5.328125 -1 C 4.890625 -1.53125 4.476562 -2.082031 4.09375 -2.65625 C 3.71875 -3.238281 3.347656 -3.820312 2.984375 -4.40625 C 2.890625 -4.5625 2.789062 -4.726562 2.6875 -4.90625 C 2.582031 -5.082031 2.476562 -5.25 2.375 -5.40625 C 2.164062 -5.375 2.035156 -5.285156 1.984375 -5.140625 C 1.941406 -5.003906 1.894531 -4.875 1.84375 -4.75 C 1.476562 -3.957031 1.117188 -3.148438 0.765625 -2.328125 C 0.410156 -1.515625 0.0664062 -0.703125 -0.265625 0.109375 C -0.472656 0.578125 -0.632812 0.847656 -0.75 0.921875 C -0.863281 0.992188 -1.148438 1.03125 -1.609375 1.03125 C -2.472656 1.007812 -2.96875 0.90625 -3.09375 0.71875 C -3.226562 0.539062 -3.15625 0.046875 -2.875 -0.765625 C -2.4375 -2.046875 -1.957031 -3.296875 -1.4375 -4.515625 C -0.914062 -5.742188 -0.382812 -6.957031 0.15625 -8.15625 C 0.457031 -8.820312 0.484375 -9.476562 0.234375 -10.125 C -0.503906 -11.90625 -1.128906 -13.71875 -1.640625 -15.5625 C -2.160156 -17.40625 -2.597656 -19.269531 -2.953125 -21.15625 C -2.972656 -21.382812 -3.007812 -21.628906 -3.0625 -21.890625 C -3.113281 -22.523438 -3.09375 -22.90625 -3 -23.03125 C -2.914062 -23.164062 -2.582031 -23.253906 -2 -23.296875 C -1.332031 -23.347656 -0.882812 -23.382812 -0.65625 -23.40625 C -0.425781 -23.4375 -0.265625 -23.351562 -0.171875 -23.15625 C -0.078125 -22.96875 0.09375 -22.554688 0.34375 -21.921875 C 0.75 -20.921875 1.132812 -19.910156 1.5 -18.890625 C 1.875 -17.867188 2.253906 -16.863281 2.640625 -15.875 C 2.722656 -15.71875 2.785156 -15.5625 2.828125 -15.40625 C 2.878906 -15.25 2.945312 -15.082031 3.03125 -14.90625 C 3.226562 -15.007812 3.359375 -15.144531 3.421875 -15.3125 C 3.492188 -15.476562 3.566406 -15.640625 3.640625 -15.796875 C 4.097656 -16.785156 4.582031 -17.765625 5.09375 -18.734375 C 5.601562 -19.710938 6.164062 -20.660156 6.78125 -21.578125 C 7.039062 -21.910156 7.300781 -22.171875 7.5625 -22.359375 C 7.832031 -22.554688 8.195312 -22.613281 8.65625 -22.53125 Z M 8.65625 -22.53125 "/></g></g></g></svg>