<svg xmlns="http://www.w3.org/2000/svg" xmlns:xlink="http://www.w3.org/1999/xlink" width="500" zoomAndPan="magnify" viewBox="0 0 375 374.999991" height="500" preserveAspectRatio="xMidYMid meet" version="1.0"><defs><g/><clipPath id="2c01887692"><path d="M 49.378906 136.253906 L 119.878906 136.253906 L 119.878906 218.753906 L 49.378906 218.753906 Z M 49.378906 136.253906 " clip-rule="nonzero"/></clipPath></defs><g clip-path="url(#2c01887692)"><path fill="#000000" d="M 101.589844 163.699219 L 96.925781 163.699219 L 99.699219 160.492188 C 100.335938 160.644531 100.992188 160.726562 101.679688 160.726562 C 106.316406 160.726562 110.101562 156.960938 110.132812 152.324219 C 110.160156 147.660156 106.386719 143.84375 101.679688 143.824219 C 97.046875 143.824219 93.25 147.589844 93.230469 152.222656 C 93.21875 153.417969 93.464844 154.601562 93.9375 155.683594 L 87.117188 163.699219 L 84.132812 163.699219 L 75.609375 153.164062 C 76.683594 151.433594 77.269531 149.429688 77.292969 147.375 C 77.3125 144.421875 76.179688 141.636719 74.101562 139.542969 C 72.027344 137.4375 69.265625 136.273438 66.238281 136.253906 C 60.1875 136.253906 55.230469 141.183594 55.1875 147.246094 C 55.167969 150.199219 56.300781 152.984375 58.375 155.089844 C 60.449219 157.191406 63.222656 158.355469 66.238281 158.378906 C 67.027344 158.378906 67.820312 158.296875 68.578125 158.132812 L 73.0625 163.722656 L 67.34375 163.722656 C 59.257812 163.699219 49.398438 166.140625 49.398438 182.847656 L 49.398438 200.507812 C 49.398438 210.386719 57.476562 218.460938 67.351562 218.460938 L 101.589844 218.460938 C 111.457031 218.460938 119.542969 210.386719 119.542969 200.507812 L 119.542969 182.847656 C 119.542969 168 109.675781 163.699219 101.589844 163.699219 Z M 103.390625 208.089844 L 65.550781 208.089844 C 62.769531 208.089844 60.421875 205.742188 60.421875 202.957031 L 60.441406 182.847656 L 60.441406 179.78125 C 60.542969 177.078125 62.839844 174.832031 65.550781 174.832031 L 103.390625 174.832031 C 106.175781 174.832031 108.523438 177.179688 108.523438 179.964844 L 108.503906 200.082031 L 108.523438 200.082031 L 108.523438 202.957031 C 108.523438 205.742188 106.175781 208.089844 103.390625 208.089844 Z M 103.390625 208.089844 " fill-opacity="1" fill-rule="nonzero"/></g><path fill="#38b6ff" d="M 76.835938 197.410156 C 76.816406 194.152344 76.796875 188.808594 76.773438 185.550781 C 76.753906 182.292969 79.195312 180.945312 81.988281 182.554688 C 84.769531 184.175781 89.425781 186.816406 92.207031 188.433594 C 94.992188 190.054688 95.050781 192.714844 92.277344 194.363281 C 89.507812 196.015625 84.820312 198.707031 82.046875 200.347656 C 79.285156 201.996094 76.847656 200.671875 76.835938 197.410156 Z M 76.835938 197.410156 " fill-opacity="1" fill-rule="nonzero"/><g fill="#38b6ff" fill-opacity="1"><g transform="translate(125.338604, 201.575641)"><g><path d="M 18.90625 -12.640625 L 27.25 -37.484375 L 37.109375 -37.484375 L 23.1875 0 L 14.453125 0 L 0.53125 -37.484375 L 10.5 -37.484375 Z M 18.90625 -12.640625 "/></g></g></g><g fill="#38b6ff" fill-opacity="1"><g transform="translate(160.882849, 201.575641)"><g><path d="M 12.3125 0 L 3.375 0 L 3.375 -27.84375 L 12.3125 -27.84375 Z M 12.421875 -32.125 L 3.21875 -32.125 L 3.21875 -39.296875 L 12.421875 -39.296875 Z M 12.421875 -32.125 "/></g></g></g><g fill="#38b6ff" fill-opacity="1"><g transform="translate(174.532855, 201.575641)"><g><path d="M 23.40625 -38.546875 L 32.28125 -38.546875 L 32.28125 0 L 24.046875 0 L 24.046875 -2.734375 C 21.972656 -0.441406 19.0625 0.703125 15.3125 0.703125 C 13.03125 0.703125 10.832031 0.101562 8.71875 -1.09375 C 6.613281 -2.289062 4.898438 -4.003906 3.578125 -6.234375 C 2.265625 -8.460938 1.609375 -11.023438 1.609375 -13.921875 C 1.609375 -16.816406 2.265625 -19.378906 3.578125 -21.609375 C 4.898438 -23.835938 6.613281 -25.550781 8.71875 -26.75 C 10.832031 -27.945312 13.03125 -28.546875 15.3125 -28.546875 C 18.707031 -28.546875 21.40625 -27.597656 23.40625 -25.703125 Z M 17.140625 -7.234375 C 19.066406 -7.234375 20.660156 -7.863281 21.921875 -9.125 C 23.191406 -10.394531 23.828125 -11.992188 23.828125 -13.921875 C 23.828125 -15.847656 23.191406 -17.441406 21.921875 -18.703125 C 20.660156 -19.972656 19.066406 -20.609375 17.140625 -20.609375 C 15.210938 -20.609375 13.613281 -19.972656 12.34375 -18.703125 C 11.070312 -17.441406 10.4375 -15.847656 10.4375 -13.921875 C 10.4375 -11.992188 11.070312 -10.394531 12.34375 -9.125 C 13.613281 -7.863281 15.210938 -7.234375 17.140625 -7.234375 Z M 17.140625 -7.234375 "/></g></g></g><g fill="#38b6ff" fill-opacity="1"><g transform="translate(208.417635, 201.575641)"><g><path d="M 16.5 -28.546875 C 19.132812 -28.546875 21.582031 -27.9375 23.84375 -26.71875 C 26.113281 -25.507812 27.9375 -23.804688 29.3125 -21.609375 C 30.6875 -19.410156 31.375 -16.921875 31.375 -14.140625 C 31.375 -13.316406 31.285156 -12.367188 31.109375 -11.296875 L 10.4375 -11.296875 C 10.800781 -9.617188 11.515625 -8.316406 12.578125 -7.390625 C 13.648438 -6.460938 14.988281 -6 16.59375 -6 C 17.882812 -6 18.96875 -6.226562 19.84375 -6.6875 C 20.71875 -7.15625 21.457031 -7.851562 22.0625 -8.78125 L 30.578125 -8.78125 C 29.535156 -5.957031 27.800781 -3.671875 25.375 -1.921875 C 22.945312 -0.171875 19.988281 0.703125 16.5 0.703125 C 13.8125 0.703125 11.328125 0.0976562 9.046875 -1.109375 C 6.765625 -2.328125 4.9375 -4.039062 3.5625 -6.25 C 2.1875 -8.46875 1.5 -11.023438 1.5 -13.921875 C 1.5 -16.816406 2.1875 -19.367188 3.5625 -21.578125 C 4.9375 -23.796875 6.765625 -25.507812 9.046875 -26.71875 C 11.328125 -27.9375 13.8125 -28.546875 16.5 -28.546875 Z M 16.5 -21.796875 C 15 -21.796875 13.71875 -21.375 12.65625 -20.53125 C 11.601562 -19.695312 10.882812 -18.476562 10.5 -16.875 L 22.59375 -16.875 C 22.3125 -18.332031 21.648438 -19.515625 20.609375 -20.421875 C 19.578125 -21.335938 18.207031 -21.796875 16.5 -21.796875 Z M 16.5 -21.796875 "/></g></g></g><g fill="#38b6ff" fill-opacity="1"><g transform="translate(239.197616, 201.575641)"><g><path d="M 16.96875 0.703125 C 14.289062 0.703125 11.765625 0.113281 9.390625 -1.0625 C 7.023438 -2.25 5.117188 -3.945312 3.671875 -6.15625 C 2.222656 -8.375 1.5 -10.960938 1.5 -13.921875 C 1.5 -16.847656 2.222656 -19.414062 3.671875 -21.625 C 5.117188 -23.84375 7.023438 -25.550781 9.390625 -26.75 C 11.765625 -27.945312 14.289062 -28.546875 16.96875 -28.546875 C 19.644531 -28.546875 22.160156 -27.945312 24.515625 -26.75 C 26.878906 -25.550781 28.78125 -23.84375 30.21875 -21.625 C 31.664062 -19.414062 32.390625 -16.847656 32.390625 -13.921875 C 32.390625 -10.960938 31.664062 -8.375 30.21875 -6.15625 C 28.78125 -3.945312 26.878906 -2.25 24.515625 -1.0625 C 22.160156 0.113281 19.644531 0.703125 16.96875 0.703125 Z M 16.96875 -7.28125 C 18.894531 -7.28125 20.472656 -7.90625 21.703125 -9.15625 C 22.941406 -10.40625 23.5625 -11.992188 23.5625 -13.921875 C 23.5625 -15.816406 22.941406 -17.394531 21.703125 -18.65625 C 20.472656 -19.925781 18.894531 -20.5625 16.96875 -20.5625 C 15.039062 -20.5625 13.460938 -19.925781 12.234375 -18.65625 C 11.003906 -17.394531 10.390625 -15.816406 10.390625 -13.921875 C 10.390625 -11.992188 11.003906 -10.40625 12.234375 -9.15625 C 13.460938 -7.90625 15.039062 -7.28125 16.96875 -7.28125 Z M 16.96875 -7.28125 "/></g></g></g><g fill="#000000" fill-opacity="1"><g transform="translate(257.592292, 201.575641)"><g><path d="M 17.03125 0 L 7.65625 0 L 13.21875 -29.015625 L 4.0625 -29.015625 L 5.671875 -37.484375 L 33.359375 -37.484375 L 31.75 -29.015625 L 22.59375 -29.015625 Z M 17.03125 0 "/></g></g></g><g fill="#000000" fill-opacity="1"><g transform="translate(285.374526, 201.575641)"><g><path d="M 14.453125 -10.234375 L 24.25 -27.84375 L 33.84375 -27.84375 L 16.8125 0 L 8.828125 0 L 2.515625 -27.84375 L 11.359375 -27.84375 Z M 14.453125 -10.234375 "/></g></g></g><g fill="#ffffff" fill-opacity="1"><g transform="translate(134.852955, 216.261665)"><g><path d="M 4.265625 0 L 2.671875 -5.546875 L 2.3125 0 L 0.453125 0 L 0.671875 -3.546875 C 0.753906 -4.984375 0.820312 -6.164062 0.875 -7.09375 L 4.03125 -7.09375 L 5.15625 -2.9375 L 6.265625 -7.09375 L 9.4375 -7.09375 C 9.476562 -6.164062 9.546875 -4.984375 9.640625 -3.546875 L 9.859375 0 L 7.984375 0 L 7.640625 -5.546875 L 6.03125 0 Z M 4.265625 0 "/></g></g></g><g fill="#ffffff" fill-opacity="1"><g transform="translate(147.906361, 216.261665)"><g><path d="M 3.984375 0.078125 C 2.742188 0.078125 1.789062 -0.332031 1.125 -1.15625 C 0.59375 -1.8125 0.328125 -2.585938 0.328125 -3.484375 C 0.328125 -4.429688 0.59375 -5.253906 1.125 -5.953125 C 1.789062 -6.796875 2.742188 -7.21875 3.984375 -7.21875 C 5.203125 -7.21875 6.15625 -6.796875 6.84375 -5.953125 C 7.363281 -5.273438 7.625 -4.453125 7.625 -3.484375 C 7.625 -2.578125 7.363281 -1.800781 6.84375 -1.15625 C 6.15625 -0.332031 5.203125 0.078125 3.984375 0.078125 Z M 2.671875 -1.9375 C 2.992188 -1.550781 3.425781 -1.359375 3.96875 -1.359375 C 4.519531 -1.359375 4.957031 -1.550781 5.28125 -1.9375 C 5.601562 -2.320312 5.765625 -2.835938 5.765625 -3.484375 C 5.765625 -4.160156 5.601562 -4.710938 5.28125 -5.140625 C 4.96875 -5.578125 4.53125 -5.796875 3.96875 -5.796875 C 3.414062 -5.796875 2.976562 -5.578125 2.65625 -5.140625 C 2.34375 -4.710938 2.1875 -4.160156 2.1875 -3.484375 C 2.1875 -2.835938 2.347656 -2.320312 2.671875 -1.9375 Z M 2.671875 -1.9375 "/></g></g></g><g fill="#ffffff" fill-opacity="1"><g transform="translate(158.609037, 216.261665)"><g><path d="M 0.5625 -7.09375 L 3.390625 -7.09375 C 4.617188 -7.09375 5.566406 -6.703125 6.234375 -5.921875 C 6.753906 -5.285156 7.015625 -4.492188 7.015625 -3.546875 C 7.015625 -2.640625 6.753906 -1.863281 6.234375 -1.21875 C 5.554688 -0.40625 4.609375 0 3.390625 0 L 0.5625 0 Z M 2.4375 -5.65625 L 2.4375 -1.4375 L 3.546875 -1.4375 C 4.066406 -1.4375 4.460938 -1.625 4.734375 -2 C 5.015625 -2.382812 5.15625 -2.898438 5.15625 -3.546875 C 5.15625 -4.953125 4.617188 -5.65625 3.546875 -5.65625 Z M 2.4375 -5.65625 "/></g></g></g><g fill="#ffffff" fill-opacity="1"><g transform="translate(168.705852, 216.261665)"><g><path d="M 0.5625 -7.09375 L 5.921875 -7.09375 L 5.921875 -5.65625 L 2.4375 -5.65625 L 2.4375 -4.25 L 5.078125 -4.25 L 5.078125 -2.78125 L 2.4375 -2.78125 L 2.4375 -1.4375 L 5.921875 -1.4375 L 5.921875 0 L 0.5625 0 Z M 0.5625 -7.09375 "/></g></g></g><g fill="#ffffff" fill-opacity="1"><g transform="translate(177.7606, 216.261665)"><g><path d="M 6.71875 -4.578125 C 6.71875 -4.171875 6.609375 -3.765625 6.390625 -3.359375 C 6.179688 -2.953125 5.867188 -2.625 5.453125 -2.375 L 6.578125 0 L 4.515625 0 L 3.546875 -2.0625 L 2.4375 -2.0625 L 2.4375 0 L 0.5625 0 L 0.5625 -7.09375 L 3.875 -7.09375 C 4.8125 -7.09375 5.519531 -6.851562 6 -6.375 C 6.476562 -5.894531 6.71875 -5.296875 6.71875 -4.578125 Z M 2.4375 -3.484375 L 3.78125 -3.484375 C 4.09375 -3.484375 4.347656 -3.582031 4.546875 -3.78125 C 4.753906 -3.976562 4.859375 -4.238281 4.859375 -4.5625 C 4.859375 -4.894531 4.753906 -5.160156 4.546875 -5.359375 C 4.347656 -5.554688 4.09375 -5.65625 3.78125 -5.65625 L 2.4375 -5.65625 Z M 2.4375 -3.484375 "/></g></g></g><g fill="#ffffff" fill-opacity="1"><g transform="translate(187.493903, 216.261665)"><g><path d="M 2.4375 -4.3125 L 2.4375 0 L 0.5625 0 L 0.5625 -7.09375 L 2.671875 -7.09375 L 5.46875 -2.890625 L 5.46875 -7.09375 L 7.328125 -7.09375 L 7.328125 0 L 5.28125 0 Z M 2.4375 -4.3125 "/></g></g></g><g fill="#ffffff" fill-opacity="1"><g transform="translate(198.157638, 216.261665)"><g/></g></g><g fill="#ffffff" fill-opacity="1"><g transform="translate(203.201611, 216.261665)"><g/></g></g><g fill="#ffffff" fill-opacity="1"><g transform="translate(208.247481, 216.261665)"><g><path d="M 7.234375 -1.765625 L 8.171875 -7.09375 L 10.09375 -7.09375 L 8.640625 0 L 6.0625 0 L 5.0625 -3.875 L 4.09375 0 L 1.546875 0 L 0.078125 -7.09375 L 2 -7.09375 L 2.9375 -1.765625 L 4.234375 -7.09375 L 5.875 -7.09375 Z M 7.234375 -1.765625 "/></g></g></g><g fill="#ffffff" fill-opacity="1"><g transform="translate(221.167598, 216.261665)"><g><path d="M 7.546875 0 L 5.578125 0 L 5.078125 -1.4375 L 2.5625 -1.4375 L 2.0625 0 L 0.078125 0 L 2.40625 -7.09375 L 5.21875 -7.09375 Z M 4.765625 -2.90625 L 3.8125 -5.8125 L 2.875 -2.90625 Z M 4.765625 -2.90625 "/></g></g></g><g fill="#ffffff" fill-opacity="1"><g transform="translate(231.55523, 216.261665)"><g><path d="M 4.0625 0 L 2.1875 0 L 2.1875 -5.65625 L 0.140625 -5.65625 L 0.140625 -7.09375 L 6.109375 -7.09375 L 6.109375 -5.65625 L 4.0625 -5.65625 Z M 4.0625 0 "/></g></g></g><g fill="#ffffff" fill-opacity="1"><g transform="translate(240.561503, 216.261665)"><g><path d="M 4.015625 -1.359375 C 4.492188 -1.359375 4.875 -1.445312 5.15625 -1.625 C 5.4375 -1.8125 5.578125 -2.082031 5.578125 -2.4375 L 7.484375 -2.4375 C 7.367188 -1.675781 7.003906 -1.066406 6.390625 -0.609375 C 5.773438 -0.148438 4.984375 0.078125 4.015625 0.078125 C 2.773438 0.078125 1.816406 -0.332031 1.140625 -1.15625 C 0.597656 -1.8125 0.328125 -2.585938 0.328125 -3.484375 C 0.328125 -4.441406 0.597656 -5.265625 1.140625 -5.953125 C 1.816406 -6.796875 2.773438 -7.21875 4.015625 -7.21875 C 4.984375 -7.21875 5.773438 -6.988281 6.390625 -6.53125 C 7.003906 -6.082031 7.367188 -5.476562 7.484375 -4.71875 L 5.578125 -4.71875 C 5.578125 -5.070312 5.441406 -5.335938 5.171875 -5.515625 C 4.898438 -5.703125 4.53125 -5.796875 4.0625 -5.796875 C 3.507812 -5.796875 3.054688 -5.570312 2.703125 -5.125 C 2.359375 -4.6875 2.1875 -4.140625 2.1875 -3.484375 C 2.1875 -2.835938 2.351562 -2.320312 2.6875 -1.9375 C 3.019531 -1.550781 3.460938 -1.359375 4.015625 -1.359375 Z M 4.015625 -1.359375 "/></g></g></g><g fill="#ffffff" fill-opacity="1"><g transform="translate(251.118769, 216.261665)"><g><path d="M 2.4375 0 L 0.5625 0 L 0.5625 -7.09375 L 2.4375 -7.09375 L 2.4375 -4.140625 L 5 -4.140625 L 5 -7.09375 L 6.875 -7.09375 L 6.875 0 L 5 0 L 5 -2.671875 L 2.4375 -2.671875 Z M 2.4375 0 "/></g></g></g><g fill="#ffffff" fill-opacity="1"><g transform="translate(261.312524, 216.261665)"><g/></g></g><g fill="#ffffff" fill-opacity="1"><g transform="translate(266.356496, 216.261665)"><g><path d="M 7.546875 0 L 5.578125 0 L 5.078125 -1.4375 L 2.5625 -1.4375 L 2.0625 0 L 0.078125 0 L 2.40625 -7.09375 L 5.21875 -7.09375 Z M 4.765625 -2.90625 L 3.8125 -5.8125 L 2.875 -2.90625 Z M 4.765625 -2.90625 "/></g></g></g><g fill="#ffffff" fill-opacity="1"><g transform="translate(276.744126, 216.261665)"><g><path d="M 0.5625 0 L 0.5625 -7.09375 L 3.796875 -7.09375 C 4.734375 -7.09375 5.453125 -6.847656 5.953125 -6.359375 C 6.460938 -5.878906 6.71875 -5.285156 6.71875 -4.578125 C 6.71875 -3.878906 6.460938 -3.28125 5.953125 -2.78125 C 5.453125 -2.289062 4.734375 -2.046875 3.796875 -2.046875 L 2.4375 -2.046875 L 2.4375 0 Z M 2.4375 -3.484375 L 3.78125 -3.484375 C 4.09375 -3.484375 4.347656 -3.582031 4.546875 -3.78125 C 4.753906 -3.976562 4.859375 -4.238281 4.859375 -4.5625 C 4.859375 -4.894531 4.753906 -5.160156 4.546875 -5.359375 C 4.347656 -5.554688 4.09375 -5.65625 3.78125 -5.65625 L 2.4375 -5.65625 Z M 2.4375 -3.484375 "/></g></g></g><g fill="#ffffff" fill-opacity="1"><g transform="translate(286.416843, 216.261665)"><g><path d="M 0.5625 0 L 0.5625 -7.09375 L 3.796875 -7.09375 C 4.734375 -7.09375 5.453125 -6.847656 5.953125 -6.359375 C 6.460938 -5.878906 6.71875 -5.285156 6.71875 -4.578125 C 6.71875 -3.878906 6.460938 -3.28125 5.953125 -2.78125 C 5.453125 -2.289062 4.734375 -2.046875 3.796875 -2.046875 L 2.4375 -2.046875 L 2.4375 0 Z M 2.4375 -3.484375 L 3.78125 -3.484375 C 4.09375 -3.484375 4.347656 -3.582031 4.546875 -3.78125 C 4.753906 -3.976562 4.859375 -4.238281 4.859375 -4.5625 C 4.859375 -4.894531 4.753906 -5.160156 4.546875 -5.359375 C 4.347656 -5.554688 4.09375 -5.65625 3.78125 -5.65625 L 2.4375 -5.65625 Z M 2.4375 -3.484375 "/></g></g></g></svg>